<svg width="68" height="67" viewBox="0 0 68 67" fill="none" xmlns="http://www.w3.org/2000/svg">
<path d="M58.6715 33.4738H58.3775L54.8292 21.0523C54.4674 19.8036 53.711 18.7057 52.6729 17.9231C51.6354 17.1406 50.3718 16.7151 49.0718 16.7108H17.9814C16.6814 16.7151 15.4178 17.1406 14.3798 17.9237C13.3417 18.7062 12.5854 19.8047 12.224 21.0534L8.67566 33.4739H8.38167C6.79458 33.4755 5.27277 34.1073 4.15026 35.2293C3.02827 36.3518 2.3965 37.8736 2.39486 39.4607V58.6185C2.39486 58.936 2.52101 59.2407 2.74552 59.4652C2.97002 59.6897 3.27471 59.8159 3.59222 59.8159H4.78958V64.6053C4.79065 65.2403 5.04296 65.8486 5.49196 66.2976C5.94097 66.7466 6.54928 66.9989 7.18428 67H11.9737C12.6088 66.9989 13.2171 66.7466 13.666 66.2976C14.115 65.8486 14.3674 65.2403 14.3684 64.6053V59.8159H52.684V64.6053C52.6851 65.2403 52.9374 65.8486 53.3864 66.2976C53.8354 66.7466 54.4437 66.9989 55.0787 67H59.8682C60.5032 66.9989 61.1115 66.7466 61.5605 66.2976C62.0095 65.8486 62.2618 65.2403 62.2628 64.6053V59.8159H63.4602C63.7777 59.8159 64.0824 59.6897 64.3069 59.4652C64.5314 59.2407 64.6576 58.936 64.6576 58.6185V39.4607C64.656 37.8736 64.0241 36.3518 62.9022 35.2293C61.7796 34.1073 60.2586 33.4754 58.6715 33.4738ZM62.2636 45.4474H51.0303L51.235 45.0379C51.5312 44.4403 51.9893 43.9373 52.5569 43.5867C53.1246 43.2355 53.7794 43.0506 54.447 43.0527H62.2635L62.2636 45.4474ZM14.5279 21.7123C14.7444 20.9628 15.1982 20.3038 15.8209 19.8338C16.4437 19.3634 17.2022 19.1085 17.982 19.1058H49.0724C49.8523 19.1085 50.6102 19.3635 51.233 19.8333C51.8557 20.3026 52.3096 20.9617 52.5266 21.7112L55.8867 33.4742H11.1683L14.5279 21.7123ZM8.38233 35.8685H58.6715C59.6241 35.8696 60.5371 36.2486 61.2106 36.9215C61.8836 37.5951 62.2626 38.5081 62.2637 39.4606V40.658H54.4471C53.3342 40.6542 52.2433 40.9627 51.2971 41.5475C50.3504 42.1322 49.5871 42.9703 49.0927 43.9674L48.0215 46.1092C47.836 46.4802 47.8558 46.9212 48.0738 47.2745C48.2919 47.6273 48.6779 47.8422 49.0927 47.8422H62.2637V52.6316H4.79028V47.8422H17.9613C18.3761 47.8422 18.762 47.6273 18.9801 47.2745C19.1982 46.9212 19.218 46.4802 19.0325 46.1092L17.9613 43.9674C17.4668 42.9704 16.7035 42.1323 15.7569 41.5475C14.8108 40.9627 13.7197 40.6543 12.6068 40.658H4.79028V39.4606C4.79135 38.5081 5.17033 37.5951 5.84332 36.9215C6.51684 36.2486 7.42977 35.8696 8.38233 35.8685ZM4.79024 43.0527H12.6068C13.2744 43.0505 13.9292 43.2355 14.4968 43.5867C15.0645 43.9373 15.5226 44.4403 15.8187 45.0379L16.0235 45.4473H4.79014L4.79024 43.0527ZM11.9766 64.6052H7.18496V59.8157H11.9744L11.9766 64.6052ZM59.8711 64.6052H55.0794V59.8157H59.8689L59.8711 64.6052ZM62.2636 57.421H4.79024V55.0263H62.2636V57.421ZM7.31086 16.0484C7.51399 16.4541 7.92825 16.7107 8.38207 16.7107C8.83589 16.7107 9.25016 16.4541 9.45327 16.0484L11.6689 11.6154L16.1018 9.39982C16.5076 9.1967 16.7641 8.78244 16.7641 8.32862C16.7641 7.8748 16.5076 7.46052 16.1018 7.25741L11.6689 5.04181L9.45327 0.608835C9.22824 0.231453 8.82145 0 8.38207 0C7.94268 0 7.53589 0.231453 7.31086 0.608835L5.09526 5.04181L0.662284 7.25741C0.256577 7.46054 0 7.8748 0 8.32862C0 8.78244 0.256577 9.19671 0.662284 9.39982L5.09526 11.6154L7.31086 16.0484ZM6.52295 7.0051C6.75441 6.88911 6.94256 6.70094 7.05856 6.46949L8.38208 3.82188L9.7056 6.46949C9.82159 6.70094 10.0098 6.8891 10.2412 7.0051L12.8888 8.32862L10.2412 9.65213C10.0098 9.76813 9.8216 9.95629 9.7056 10.1877L8.38208 12.8354L7.05856 10.1877C6.94257 9.95629 6.75441 9.76813 6.52295 9.65213L3.87535 8.32862L6.52295 7.0051ZM66.5197 13.3191L63.1264 11.0575L60.8648 7.66427C60.6302 7.34995 60.2608 7.16448 59.8685 7.16448C59.4761 7.16448 59.1068 7.34997 58.8721 7.66427L56.6105 11.0575L53.2173 13.3191C52.8843 13.5415 52.6843 13.9151 52.6843 14.3155C52.6843 14.7158 52.8843 15.0895 53.2173 15.3118L56.6105 17.5734L58.8721 20.9667C59.0945 21.2997 59.4681 21.4996 59.8685 21.4996C60.2688 21.4996 60.6425 21.2997 60.8648 20.9667L63.1264 17.5734L66.5197 15.3118C66.8527 15.0895 67.0526 14.7158 67.0526 14.3155C67.0526 13.9151 66.8527 13.5415 66.5197 13.3191ZM61.5993 15.7138C61.4683 15.802 61.355 15.9148 61.2668 16.0458L59.8684 18.1438L58.47 16.0463C58.3818 15.9154 58.269 15.802 58.1381 15.7138L56.04 14.3155L58.1375 12.9171C58.2685 12.8289 58.3818 12.7161 58.47 12.5851L59.8684 10.4871L61.2668 12.5846C61.355 12.7155 61.4678 12.8288 61.5987 12.9171L63.6968 14.3154L61.5993 15.7138Z" fill="#282828"/>
<path d="M23.948 47.8421H43.1058C43.4233 47.8421 43.728 47.716 43.9525 47.4915C44.177 47.267 44.3032 46.9623 44.3032 46.6448V41.8553C44.3032 41.5378 44.177 41.2331 43.9525 41.0086C43.728 40.7841 43.4233 40.6579 43.1058 40.6579H23.948C23.2868 40.6579 22.7507 41.1941 22.7507 41.8553V46.6448C22.7507 46.9623 22.8768 47.267 23.1013 47.4915C23.3258 47.716 23.6305 47.8421 23.948 47.8421ZM25.1454 43.0527H41.9085V45.4474H25.1454V43.0527ZM7.31086 16.0484C7.51399 16.4541 7.92825 16.7107 8.38207 16.7107C8.83589 16.7107 9.25016 16.4541 9.45327 16.0484L11.6689 11.6154L16.1018 9.39982C16.5076 9.1967 16.7641 8.78244 16.7641 8.32862C16.7641 7.8748 16.5076 7.46052 16.1018 7.25741L11.6689 5.04181L9.45327 0.608835C9.22824 0.231453 8.82145 0 8.38207 0C7.94268 0 7.53589 0.231453 7.31086 0.608835L5.09526 5.04181L0.662284 7.25741C0.256577 7.46054 0 7.8748 0 8.32862C0 8.78244 0.256577 9.19671 0.662284 9.39982L5.09526 11.6154L7.31086 16.0484ZM6.52295 7.0051C6.75441 6.88911 6.94256 6.70094 7.05856 6.46949L8.38208 3.82188L9.7056 6.46949C9.82159 6.70094 10.0098 6.8891 10.2412 7.0051L12.8888 8.32862L10.2412 9.65213C10.0098 9.76813 9.8216 9.95629 9.7056 10.1877L8.38208 12.8354L7.05856 10.1877C6.94257 9.95629 6.75441 9.76813 6.52295 9.65213L3.87535 8.32862L6.52295 7.0051ZM66.5197 13.3191L63.1264 11.0575L60.8648 7.66427C60.6302 7.34995 60.2608 7.16448 59.8685 7.16448C59.4761 7.16448 59.1068 7.34997 58.8721 7.66427L56.6105 11.0575L53.2173 13.3191C52.8843 13.5415 52.6843 13.9151 52.6843 14.3155C52.6843 14.7158 52.8843 15.0895 53.2173 15.3118L56.6105 17.5734L58.8721 20.9667C59.0945 21.2997 59.4681 21.4996 59.8685 21.4996C60.2688 21.4996 60.6425 21.2997 60.8648 20.9667L63.1264 17.5734L66.5197 15.3118C66.8527 15.0895 67.0526 14.7158 67.0526 14.3155C67.0526 13.9151 66.8527 13.5415 66.5197 13.3191ZM61.5993 15.7138C61.4683 15.802 61.355 15.9148 61.2668 16.0458L59.8684 18.1438L58.47 16.0463C58.3818 15.9154 58.269 15.802 58.1381 15.7138L56.04 14.3155L58.1375 12.9171C58.2685 12.8289 58.3818 12.7161 58.47 12.5851L59.8684 10.4871L61.2668 12.5846C61.355 12.7155 61.4678 12.8288 61.5987 12.9171L63.6968 14.3154L61.5993 15.7138Z" fill="#FF5C00"/>
<path d="M7.31086 16.0484C7.51399 16.4541 7.92825 16.7107 8.38207 16.7107C8.83589 16.7107 9.25016 16.4541 9.45327 16.0484L11.6689 11.6154L16.1018 9.39982C16.5076 9.1967 16.7641 8.78244 16.7641 8.32862C16.7641 7.8748 16.5076 7.46052 16.1018 7.25741L11.6689 5.04181L9.45327 0.608835C9.22824 0.231453 8.82145 0 8.38207 0C7.94268 0 7.53589 0.231453 7.31086 0.608835L5.09526 5.04181L0.662284 7.25741C0.256577 7.46054 0 7.8748 0 8.32862C0 8.78244 0.256577 9.19671 0.662284 9.39982L5.09526 11.6154L7.31086 16.0484ZM6.52295 7.0051C6.75441 6.88911 6.94256 6.70094 7.05856 6.46949L8.38208 3.82188L9.7056 6.46949C9.82159 6.70094 10.0098 6.8891 10.2412 7.0051L12.8888 8.32862L10.2412 9.65213C10.0098 9.76813 9.8216 9.95629 9.7056 10.1877L8.38208 12.8354L7.05856 10.1877C6.94257 9.95629 6.75441 9.76813 6.52295 9.65213L3.87535 8.32862L6.52295 7.0051ZM66.5197 13.3191L63.1264 11.0575L60.8648 7.66427C60.6302 7.34995 60.2608 7.16448 59.8685 7.16448C59.4761 7.16448 59.1068 7.34997 58.8721 7.66427L56.6105 11.0575L53.2173 13.3191C52.8843 13.5415 52.6843 13.9151 52.6843 14.3155C52.6843 14.7158 52.8843 15.0895 53.2173 15.3118L56.6105 17.5734L58.8721 20.9667C59.0945 21.2997 59.4681 21.4996 59.8685 21.4996C60.2688 21.4996 60.6425 21.2997 60.8648 20.9667L63.1264 17.5734L66.5197 15.3118C66.8527 15.0895 67.0526 14.7158 67.0526 14.3155C67.0526 13.9151 66.8527 13.5415 66.5197 13.3191ZM61.5993 15.7138C61.4683 15.802 61.355 15.9148 61.2668 16.0458L59.8684 18.1438L58.47 16.0463C58.3818 15.9154 58.269 15.802 58.1381 15.7138L56.04 14.3155L58.1375 12.9171C58.2685 12.8289 58.3818 12.7161 58.47 12.5851L59.8684 10.4871L61.2668 12.5846C61.355 12.7155 61.4678 12.8288 61.5987 12.9171L63.6968 14.3154L61.5993 15.7138Z" fill="#FF5C00"/>
</svg>
