<svg width="67" height="68" viewBox="0 0 67 68" fill="none" xmlns="http://www.w3.org/2000/svg">
<path d="M22.8939 16.1727H17.9582C17.643 16.1727 17.2233 16.3826 17.1179 16.6978L13.9677 21.7385L10.712 16.6978C10.5021 16.3826 10.1869 16.1727 9.87168 16.1727H4.83101C2.20578 16.1727 0.000244141 18.3778 0.000244141 21.0035V41.6912C0.000244141 44.3164 2.20528 46.522 4.83101 46.522H6.82626V63.2194C6.82626 65.4245 8.61173 67.3149 10.9217 67.3149C12.0767 67.3149 13.2322 66.7898 13.967 65.9496C14.5975 66.6845 15.6475 67.2096 16.8025 67.2096C19.0076 67.2096 20.898 65.4241 20.898 63.1141L20.8985 46.5218H22.8937C25.519 46.5218 27.7245 44.3168 27.7245 41.6911L27.724 21.0034C27.724 18.3776 25.519 16.1726 22.8937 16.1726L22.8939 16.1727ZM25.6241 41.6911C25.6241 43.1613 24.3636 44.4216 22.8935 44.4216H20.8988V30.0349C20.8988 29.405 20.4786 28.9848 19.8487 28.9848C19.2187 28.9848 18.7986 29.405 18.7986 30.0349V63.1142C18.7986 64.1643 17.9583 65.1095 16.8033 65.1095C15.8581 65.1095 14.8081 64.3746 14.8081 63.1142L14.8076 47.5715C14.8076 46.9416 14.3875 46.5214 13.7575 46.5214C13.1275 46.5214 12.7074 46.9416 12.7074 47.5715V63.113C12.7074 64.1631 11.8671 65.1082 10.7121 65.1082C9.66206 65.1082 8.7169 64.268 8.7169 63.113V30.0337C8.7169 29.4037 8.29677 28.9836 7.6668 28.9836C7.03685 28.9836 6.61671 29.4037 6.61671 30.0337V44.3152H4.83124C3.36101 44.3152 2.10069 43.0548 2.10069 41.5846L2.10117 21.0021C2.10117 19.5319 3.36162 18.2716 4.83173 18.2716H9.24242L13.0231 24.1525C13.233 24.4677 13.5482 24.6776 13.8634 24.6776C14.1786 24.6776 14.5983 24.4677 14.7037 24.1525L18.4844 18.2716H22.8951C24.3653 18.2716 25.6257 19.532 25.6257 21.0021L25.6241 41.6911Z" fill="#282828"/>
<path d="M13.8626 14.7023C17.9581 14.7023 21.2138 11.4466 21.2138 7.35116C21.2138 3.2557 17.9581 0 13.8626 0C9.76718 0 6.51147 3.2557 6.51147 7.35116C6.51147 11.4466 9.76718 14.7023 13.8626 14.7023ZM13.8626 2.10033C16.8031 2.10033 19.1136 4.41082 19.1136 7.35129C19.1136 10.2918 16.8031 12.6022 13.8626 12.6022C10.9222 12.6022 8.61168 10.2918 8.61168 7.35129C8.61217 4.41082 10.9222 2.10033 13.8626 2.10033Z" fill="#282828"/>
<path d="M52.718 34.0249H57.3385C57.8635 36.2299 59.7539 37.9105 62.0644 37.9105C64.795 37.9105 67.0001 35.7055 67.0001 32.9748C67.0001 30.2441 64.7951 28.0391 62.0644 28.0391C59.7539 28.0391 57.7587 29.7191 57.3385 31.9248H52.718V9.45109H57.3385C57.8635 11.6561 59.7539 13.3368 62.0644 13.3368C64.795 13.3368 67.0001 11.1317 67.0001 8.40105C67.0001 5.67037 64.7951 3.46533 62.0644 3.46533C59.7539 3.46533 57.7587 5.14535 57.3385 7.35101H51.668C51.038 7.35101 50.6179 7.77114 50.6179 8.4011V32.0295H44.7369V28.2488C44.7369 27.6189 44.3168 27.1987 43.6869 27.1987H34.1307C33.5007 27.1987 33.0806 27.6188 33.0806 28.2488L33.0801 37.805C33.0801 38.435 33.5002 38.8551 34.1302 38.8551H43.6864C44.3163 38.8551 44.7365 38.435 44.7365 37.805V34.0243H50.6174L50.6179 58.8087C50.6179 59.4387 51.038 59.8588 51.668 59.8588H57.3385C57.8635 62.0638 59.7539 63.7445 62.0644 63.7445C64.795 63.7445 67.0001 61.5394 67.0001 58.8088C67.0001 56.0781 64.7951 53.873 62.0644 53.873C59.7539 53.873 57.7587 55.5531 57.3385 57.7587H52.718V34.0249ZM62.1693 30.2441C63.7444 30.2441 65.0048 31.5046 65.0048 33.0796C65.0048 34.6548 63.7443 35.9152 62.1693 35.9152C60.5941 35.9152 59.3338 34.6547 59.3338 33.0796C59.3338 31.5045 60.5942 30.2441 62.1693 30.2441ZM62.1693 5.56616C63.7444 5.56616 65.0048 6.82661 65.0048 8.40167C65.0048 9.97686 63.7443 11.2372 62.1693 11.2372C60.5941 11.2372 59.3338 9.97673 59.3338 8.40167C59.3338 6.82648 60.5942 5.56616 62.1693 5.56616ZM42.6363 36.7555H35.1803V29.2995H42.6363V36.7555ZM62.1693 56.0781C63.7444 56.0781 65.0048 57.3385 65.0048 58.9136C65.0048 60.4887 63.7443 61.7491 62.1693 61.7491C60.5941 61.7491 59.3338 60.4887 59.3338 58.9136C59.3338 57.3385 60.5942 56.0781 62.1693 56.0781Z" fill="#FF5C00"/>
</svg>
