<svg width="67" height="67" viewBox="0 0 67 67" fill="none" xmlns="http://www.w3.org/2000/svg">
<path d="M45.9197 53.6667L30.9881 45.5607L30.4902 45.7501L30.2294 45.8686V45.8692C28.7132 46.6326 27.4102 47.7605 26.4373 49.1518C22.533 46.1998 19.3011 42.4509 16.9569 38.1542L16.412 37.076C16.2459 36.7443 16.0681 36.4004 15.9142 36.0449C13.8837 31.7422 12.7659 27.066 12.6315 22.3105C14.3123 22.3492 15.9766 21.9751 17.4786 21.2202C17.5616 21.18 17.641 21.1324 17.7156 21.0779L18.1896 20.7816L20.4295 4.01356L20.0386 3.59879H20.0381C19.3201 2.82587 18.4986 2.15615 17.5971 1.60805C14.4599 -0.342471 10.5371 -0.53086 7.22804 1.11022C4.79917 2.35028 2.95023 4.48862 2.07316 7.07093V7.18944L1.94302 7.5804C1.94302 7.74652 1.85996 7.88829 1.83615 7.98353C-1.49092 19.5864 -0.265785 32.0217 5.26114 42.7535C10.6668 53.5665 19.9896 61.9146 31.3322 66.0995C31.9485 66.3249 32.5172 66.5381 33.1574 66.7159H33.2875V66.7154C34.0996 66.9042 34.9302 67 35.7639 67C37.3828 67.0032 38.9789 66.6212 40.4211 65.8858C43.7583 64.1749 45.94 60.8251 46.157 57.081C46.2327 56.0943 46.1771 55.1024 45.9909 54.1306L45.9197 53.6667ZM17.9282 4.83063L15.9728 19.3004C15.3295 19.5776 14.6518 19.7691 13.9582 19.8691L16.3283 3.64547V3.646C16.9055 3.97771 17.4425 4.37554 17.928 4.83105L17.9282 4.83063ZM39.3538 63.8094C37.672 64.6669 35.741 64.9024 33.9026 64.4733C33.3101 64.2839 32.7176 64.0823 32.1489 63.8691V63.8686C21.3702 59.8913 12.511 51.9594 7.36989 41.6846C2.11127 31.4857 0.93733 19.6671 4.08725 8.63327L4.17031 8.34864C4.17031 8.2185 4.2412 8.08782 4.32426 7.85081V7.85134C4.86388 6.26474 5.88649 4.8871 7.24882 3.91157C8.61115 2.93604 10.2447 2.41178 11.9202 2.41178C12.6693 2.41019 13.4147 2.50965 14.1363 2.70804L11.553 19.8797L10.2495 19.7019V21.0409C10.2056 26.5815 11.4213 32.0602 13.8046 37.0628C13.9824 37.4299 14.1601 37.8092 14.3495 38.1769C14.5389 38.5441 14.7289 38.9118 14.9304 39.2551C17.6539 44.2328 21.4804 48.5218 26.1175 51.7928L27.2195 52.563L27.8475 51.378L43.0283 59.9458C42.2802 61.6143 40.984 62.9778 39.3546 63.8088L39.3538 63.8094ZM43.7977 56.9477C43.7977 57.1731 43.7384 57.3863 43.703 57.5995L29.2576 49.4111C29.7311 48.9217 30.2691 48.499 30.8573 48.1551L43.7505 55.1585C43.8198 55.7526 43.8357 56.3515 43.7976 56.9483L43.7977 56.9477Z" fill="#282828"/>
<path d="M43.3829 20.7576H45.0065V30.2263H43.3829V33.8053H50.1615V30.2263H48.538V20.7576H50.1615V17.167H43.3829V20.7576Z" fill="#FF5C00"/>
<path d="M46.7729 15.0341C47.4352 15.0309 48.0696 14.7648 48.5362 14.295C49.0028 13.8247 49.2637 13.1883 49.2615 12.526C49.2594 11.8637 48.9944 11.2288 48.5251 10.7617C48.0553 10.294 47.4194 10.0321 46.757 10.0332C46.0947 10.0343 45.4593 10.2983 44.9917 10.767C44.5235 11.2357 44.2605 11.8711 44.2605 12.534C44.2574 13.2001 44.5213 13.8397 44.9938 14.3094C45.4657 14.7797 46.1069 15.0405 46.773 15.0342L46.7729 15.0341Z" fill="#FF5C00"/>
<path d="M46.6659 3.21931C39.9608 3.2246 33.7409 6.71675 30.2459 12.4394C26.751 18.162 26.4845 25.2903 29.5418 31.2579L25.8798 40.2288L38.7259 39.9918V39.9912C41.2182 41.1271 43.9269 41.7091 46.6657 41.698C51.8514 41.8265 56.8688 39.8569 60.5816 36.2351C64.2944 32.6128 66.3878 27.6456 66.3878 22.4588C66.3878 17.2715 64.2944 12.3044 60.5816 8.68245C56.8682 5.06014 51.8508 3.09053 46.6657 3.21905L46.6659 3.21931ZM46.6659 39.3273C44.1826 39.3384 41.7284 38.7914 39.4848 37.7276L39.224 37.6091L29.4358 37.7985L32.1614 31.1506L31.8889 30.6527H31.8884C29.4733 26.3088 29.0956 21.1205 30.8573 16.4728C32.6185 11.8247 36.3397 8.18968 41.0276 6.53752C45.7153 4.88536 50.8931 5.38369 55.1804 7.89985C59.4672 10.4159 62.4261 14.6943 63.2689 19.5932C64.1112 24.4916 62.751 29.5127 59.5514 33.3167C56.3512 37.12 51.6374 39.3197 46.6666 39.3282L46.6659 39.3273Z" fill="#FF5C00"/>
</svg>
