<svg width="73" height="67" viewBox="0 0 73 67" fill="none" xmlns="http://www.w3.org/2000/svg">
<path d="M72.217 29.232L65.1158 13.4025C66.7501 11.7572 67.907 9.70559 68.4664 7.46383C68.9955 5.06544 68.5071 2.97655 67.0924 1.57044C65.6777 0.164389 63.5699 -0.318893 61.1523 0.207229C58.9624 0.741385 56.9531 1.83592 55.3238 3.38222L38.016 0.579237C36.6019 0.366307 35.17 0.839893 34.1671 1.8519L1.34013 34.421C0.534709 35.2091 0.0586207 36.2695 0.00559042 37.391C-0.0542301 38.5137 0.368214 39.6096 1.16807 40.4062L26.8086 65.8453C27.5678 66.5936 28.597 67.0084 29.6676 66.9999C30.8615 66.9938 32.0049 66.5171 32.8448 65.6752L39.6033 58.9698L51.2614 64.0476C51.7505 64.2948 52.2913 64.4233 52.8396 64.4221C53.5377 64.4129 54.2204 64.2159 54.8143 63.8524C55.4088 63.489 55.8923 62.972 56.2142 62.3577L72.1138 32.691C72.7003 31.6196 72.7398 30.336 72.2187 29.2315L72.217 29.232ZM61.7461 2.88758C62.5928 2.70341 64.1592 2.53943 65.1385 3.51107C66.1178 4.48271 65.9526 6.03681 65.7669 6.87622C65.429 8.25656 64.7845 9.54387 63.8805 10.6452L63.3501 7.42068C63.2237 6.59835 62.8352 5.83849 62.2425 5.25049C61.6493 4.66188 60.8833 4.27703 60.0545 4.15099L59.0666 3.9913C59.893 3.47979 60.7983 3.10656 61.7468 2.8869L61.7461 2.88758ZM30.8846 63.7403C30.3419 64.3638 29.3953 64.439 28.7588 63.9098L3.11831 38.4675C2.86916 38.2118 2.73966 37.8636 2.76309 37.5082C2.78714 37.0737 2.97524 36.6638 3.28974 36.3603L36.1168 3.7912C36.4393 3.46447 36.8778 3.27662 37.3384 3.26683C37.4143 3.26683 37.4908 3.27295 37.566 3.28457L53.1759 5.81391C52.4525 6.82653 51.8858 7.94133 51.4953 9.12032C50.6005 9.37547 49.7859 9.85272 49.1278 10.5068C47.9635 11.654 47.3715 13.2534 47.5109 14.8755C47.6496 16.4975 48.5056 17.9752 49.8489 18.9107C51.1914 19.8457 52.8831 20.143 54.468 19.7221C56.0529 19.3011 57.3683 18.2053 58.0603 16.7295C58.7528 15.2537 58.7504 13.5491 58.0541 12.0751C57.3578 10.6012 56.0393 9.50898 54.4531 9.09233C54.9157 8.07972 55.5323 7.14364 56.2816 6.31692L59.6051 6.85535C60.1311 6.93061 60.5437 7.34056 60.6189 7.86247L64.218 29.7303C64.2865 30.2632 64.0978 30.7961 63.7086 31.1694L30.8846 63.7403ZM51.08 12.447C51.1516 13.4303 51.4778 14.3786 52.0285 15.2004C52.2308 15.5106 52.5509 15.7272 52.916 15.8006C53.2817 15.8734 53.6615 15.7969 53.9687 15.5876C54.2764 15.379 54.4861 15.0553 54.5496 14.6913C54.6137 14.3266 54.5262 13.9521 54.3079 13.653C53.9545 13.0888 53.7824 12.4317 53.8145 11.7685C54.7488 12.0377 55.4703 12.7768 55.7115 13.7123C55.9528 14.6478 55.6782 15.6397 54.9888 16.3212C54.4627 16.8199 53.7628 17.0983 53.0357 17.0983C52.308 17.0983 51.608 16.8199 51.082 16.3212C50.5646 15.8073 50.2741 15.1104 50.2741 14.3841C50.2741 13.6572 50.5646 12.961 51.082 12.447H51.08ZM69.6667 31.4061L53.7687 61.0728C53.5565 61.5574 52.9984 61.7899 52.5013 61.6014L41.6937 56.8914L65.6655 33.108C66.6861 32.1131 67.1628 30.693 66.9488 29.29L65.6365 21.2997L69.7183 30.3974C69.862 30.7229 69.8431 31.0965 69.6667 31.4061Z" fill="#282828"/>
<path d="M29.8758 41.2244C27.89 43.1945 27.5772 45.97 29.1622 47.5424C29.8437 48.1983 30.7614 48.5569 31.7105 48.5367C31.9473 48.5367 32.1841 48.5171 32.4185 48.4792C33.6013 48.265 34.6879 47.6899 35.5267 46.8345C36.3883 46.0024 36.968 44.925 37.1844 43.7507C37.4157 42.5857 37.0642 41.3816 36.2402 40.5201C34.659 38.9428 31.8615 39.2542 29.8758 41.2244ZM34.4635 43.3095C34.3383 43.9152 34.0299 44.4684 33.5791 44.8954C33.1493 45.3421 32.5911 45.648 31.9812 45.7722C31.6828 45.8432 31.3682 45.7814 31.1191 45.604C30.7158 45.2032 30.9396 44.0492 31.8332 43.162C32.3217 42.6413 32.9889 42.3201 33.7037 42.2626C33.9159 42.2479 34.1256 42.3171 34.2871 42.4541C34.4684 42.7007 34.5325 43.0128 34.4635 43.3095ZM32.4512 22.0103C31.2727 22.2397 30.1898 22.813 29.3399 23.6555C28.4907 24.4981 27.9135 25.5731 27.6822 26.7424C27.4503 27.9073 27.8025 29.1121 28.6264 29.9736C29.3079 30.6295 30.2255 30.9874 31.1747 30.9679C31.4115 30.9672 31.6483 30.9483 31.8826 30.9103C33.0655 30.6962 34.1521 30.121 34.9909 29.2657C35.8524 28.4335 36.4321 27.3555 36.6486 26.1818C36.9125 25.0156 36.5561 23.7963 35.7038 22.9506C34.8521 22.1056 33.623 21.752 32.4476 22.0139L32.4512 22.0103ZM33.9245 25.7401C33.7999 26.3452 33.4909 26.8995 33.0407 27.326C32.6103 27.7732 32.0528 28.0792 31.4422 28.2034C31.1462 28.327 30.804 28.2597 30.5776 28.0339C30.3507 27.8081 30.2841 27.4692 30.4099 27.1755C30.5486 26.5746 30.8551 26.0252 31.2942 25.5895C31.7333 25.1539 32.2871 24.8498 32.8927 24.7121C32.9828 24.6974 33.074 24.6901 33.1659 24.6901C33.3799 24.6754 33.5914 24.7439 33.7555 24.881C33.9343 25.13 33.9954 25.4439 33.922 25.7413L33.9245 25.7401ZM23.6274 32.6522L41.6173 35.1192C42.3357 35.2183 42.855 35.8516 42.8056 36.5699C42.7563 37.2876 42.1556 37.8456 41.4298 37.8475C41.3663 37.8475 41.3027 37.8432 41.2392 37.834L23.2493 35.3706C22.4933 35.2672 21.9654 34.5752 22.0696 33.8251C22.1738 33.0755 22.8713 32.5512 23.6267 32.6546L23.6274 32.6522ZM35.2231 11.4015C34.6835 10.8662 33.8091 10.8662 33.2701 11.4015L8.40471 36.0716C7.8651 36.6069 7.8651 37.4739 8.40471 38.0093L29.65 59.0877C30.189 59.623 31.0635 59.623 31.6031 59.0877L56.4684 34.4176C57.008 33.8829 57.008 33.0153 56.4684 32.4799L35.2231 11.4015ZM30.6238 56.1804L11.3314 37.038L34.2423 14.3071L53.5346 33.4495L30.6238 56.1804Z" fill="#FF5C00"/>
</svg>
