<svg width="36" height="31" viewBox="0 0 36 31" fill="none" xmlns="http://www.w3.org/2000/svg">
<path d="M32.8737 0H2.52896C1.6254 0 0.79068 0.481982 0.338669 1.26425C-0.11289 2.04654 -0.11289 3.01054 0.338669 3.79276C0.790669 4.57505 1.62539 5.05701 2.52896 5.05701H32.8737C33.7773 5.05701 34.612 4.57503 35.064 3.79276C35.5156 3.01047 35.5156 2.04646 35.064 1.26425C34.612 0.481959 33.7773 0 32.8737 0Z" fill="white"/>
<path d="M22.7588 12.6437H2.52896C1.6254 12.6437 0.79068 13.1257 0.338669 13.9079C-0.11289 14.6902 -0.11289 15.6542 0.338669 16.4364C0.790669 17.2187 1.62539 17.7007 2.52896 17.7007H22.7588C23.6624 17.7007 24.4971 17.2187 24.9486 16.4364C25.4002 15.6541 25.4002 14.6901 24.9486 13.9079C24.4971 13.1256 23.6623 12.6437 22.7588 12.6437Z" fill="white"/>
<path d="M12.6439 25.2873H2.52917C1.62561 25.2873 0.790893 25.7693 0.338883 26.5515C-0.112676 27.3338 -0.112676 28.2978 0.338883 29.08C0.790882 29.8623 1.6256 30.3443 2.52917 30.3443H12.6439C13.5474 30.3443 14.3821 29.8623 14.8337 29.08C15.2857 28.2978 15.2857 27.3338 14.8337 26.5515C14.3821 25.7693 13.5473 25.2873 12.6439 25.2873Z" fill="white"/>
</svg>
