<svg width="28" height="29" viewBox="0 0 28 29" fill="none" xmlns="http://www.w3.org/2000/svg">
<path d="M14 0C6.27083 0 0 6.49479 0 14.5C0 22.5052 6.27083 29 14 29C21.7292 29 28 22.5052 28 14.5C28 6.49479 21.7292 0 14 0ZM21.2042 10.9958L12.9792 19.5448C12.7167 19.8167 12.3375 19.9979 11.9583 19.9979C11.5792 19.9979 11.2 19.8469 10.9375 19.5448L6.79583 15.2552C6.2125 14.651 6.2125 13.7146 6.79583 13.1104C7.37917 12.5063 8.28333 12.5063 8.86667 13.1104L11.9583 16.3125L19.1625 8.85104C19.7458 8.24687 20.65 8.24687 21.2333 8.85104C21.7875 9.45521 21.7875 10.3917 21.2042 10.9958Z" fill="#FF5C00"/>
</svg>
