<svg width="47" height="47" viewBox="0 0 47 47" fill="none" xmlns="http://www.w3.org/2000/svg">
<rect width="47" height="47" rx="5" fill="#FF5C00"/>
<path d="M23.4999 12C17.1533 12 12 17.1532 12 23.5C12 29.8468 17.1532 35 23.4999 35C25.3441 35 27.0802 34.566 28.7076 33.7525C29.0875 33.5356 29.2502 33.0472 29.0875 32.6676C28.8707 32.2877 28.3822 32.125 28.0027 32.2877C26.5924 32.9931 25.0737 33.3726 23.5004 33.3726C18.0218 33.3726 13.6278 28.9242 13.6278 23.4999C13.6274 18.0758 18.0216 13.6273 23.5004 13.6273C28.9792 13.6273 33.3729 18.0214 33.3729 23.4999V26.429C33.3729 27.4052 32.5594 28.2191 31.5829 28.2191C30.6067 28.2191 29.7928 27.4055 29.7928 26.429V23.4999C29.7928 20.0282 26.972 17.1532 23.4461 17.1532C19.92 17.1532 17.1536 20.0282 17.1536 23.4999C17.1536 26.9716 19.9745 29.8466 23.5003 29.8466C25.4531 29.8466 27.2433 28.9245 28.3821 27.5143C28.8161 28.8704 30.1182 29.8466 31.5825 29.8466C33.4812 29.8466 35 28.3277 35 26.4291V23.5C35 17.1533 29.8468 12 23.5001 12L23.4999 12ZM23.4999 28.2193C20.8963 28.2193 18.7807 26.1038 18.7807 23.5001C18.7807 20.8964 20.8963 18.7809 23.4999 18.7809C26.1036 18.7809 28.2191 20.8964 28.2191 23.5001C28.2191 26.1038 26.1036 28.2193 23.4999 28.2193Z" fill="white"/>
</svg>
