<svg width="47" height="46" viewBox="0 0 47 46" fill="none" xmlns="http://www.w3.org/2000/svg">
<rect width="47" height="46" rx="5" fill="#FF5C00"/>
<path d="M30.3822 19.5212C30.3822 15.719 27.2954 12.6251 23.5009 12.6251C19.7064 12.6253 16.6197 15.7191 16.6197 19.5212C16.6197 23.3235 19.7065 26.4174 23.5009 26.4174C27.2954 26.4174 30.3822 23.3239 30.3822 19.5212ZM17.8152 19.5212C17.8152 16.3792 20.366 13.8229 23.5012 13.8229C26.6365 13.8229 29.1872 16.3792 29.1872 19.5212C29.1872 22.6633 26.6365 25.2195 23.5012 25.2195C20.366 25.2195 17.8152 22.6633 17.8152 19.5212ZM23.0041 36.7355C23.1151 36.9008 23.3009 37 23.4998 37C23.699 37 23.8845 36.9008 23.9956 36.7355C24.6702 35.7316 25.6487 34.5077 26.6848 33.2121C29.9439 29.1358 34 24.0624 34 19.5221C34 13.7202 29.29 9 23.5006 9C17.7105 9 13 13.7202 13 19.5221C13 24.0629 17.0559 29.1358 20.3152 33.2121C21.351 34.5076 22.3295 35.7316 23.0041 36.7355ZM23.5005 10.1974C28.6307 10.1974 32.8044 14.3801 32.8044 19.5213C32.8044 23.6413 28.8939 28.5324 25.7516 32.4623C24.9279 33.4922 24.1398 34.4778 23.4995 35.359C22.8592 34.4782 22.0711 33.4927 21.2472 32.4623C18.1052 28.5323 14.195 23.6411 14.195 19.5207C14.195 14.3797 18.3693 10.1974 23.5005 10.1974Z" fill="white"/>
</svg>
