<svg width="101" height="17" viewBox="0 0 101 17" fill="none" xmlns="http://www.w3.org/2000/svg">
<path d="M9.18206 0L11.2436 5.87336L17.9147 5.87336L12.5176 9.50329L14.5791 15.3766L9.18206 11.7467L3.78498 15.3766L5.84648 9.50329L0.449402 5.87336L7.12056 5.87336L9.18206 0Z" fill="#FBB040"/>
<path d="M29.8422 0L31.9037 5.87336L38.5749 5.87336L33.1778 9.50329L35.2393 15.3766L29.8422 11.7467L24.4451 15.3766L26.5066 9.50329L21.1096 5.87336L27.7807 5.87336L29.8422 0Z" fill="#FBB040"/>
<path d="M50.5024 0L52.5639 5.87336L59.235 5.87336L53.838 9.50329L55.8995 15.3766L50.5024 11.7467L45.1053 15.3766L47.1668 9.50329L41.7697 5.87336L48.4409 5.87336L50.5024 0Z" fill="#FBB040"/>
<path d="M71.1586 0L73.2201 5.87336L79.8913 5.87336L74.4942 9.50329L76.5557 15.3766L71.1586 11.7467L65.7615 15.3766L67.823 9.50329L62.426 5.87336L69.0971 5.87336L71.1586 0Z" fill="#FBB040"/>
<path d="M91.8188 0L93.8803 5.87336L100.551 5.87336L95.1544 9.50329L97.2159 15.3766L91.8188 11.7467L86.4217 15.3766L88.4832 9.50329L83.0861 5.87336L89.7573 5.87336L91.8188 0Z" fill="#FBB040"/>
</svg>
