<svg width="47" height="47" viewBox="0 0 47 47" fill="none" xmlns="http://www.w3.org/2000/svg">
<rect width="47" height="47" rx="5" fill="#FF5C00"/>
<path d="M29.4294 29.6226C28.6677 28.8469 27.3383 28.8481 26.5773 29.6226L25.1806 31.0432C24.8195 31.4101 24.2015 31.4096 23.8413 31.0432L19.1735 26.2963C18.9682 26.0869 18.6321 26.0839 18.4234 26.2902C18.2145 26.4953 18.2117 26.8316 18.4173 27.0402L23.0848 31.7871C23.8467 32.5623 25.1756 32.5623 25.9371 31.7871L27.3338 30.3665C27.6933 30.0017 28.3136 30.0008 28.6732 30.3665L32.1662 33.9185C32.3469 34.1025 32.4463 34.3491 32.4463 34.6122C32.4463 34.8753 32.3469 35.1221 32.1662 35.3059C30.6802 36.8167 28.7058 37.6488 26.6064 37.6488C24.507 37.6488 22.5327 36.8167 21.047 35.3059L13.363 27.4909C10.2906 24.3667 10.2906 19.2825 13.363 16.1581C13.723 15.7924 14.3421 15.7924 14.7024 16.1581L18.1951 19.7101C18.571 20.0923 18.571 20.7152 18.1951 21.0975L16.7977 22.5181C16.0185 23.3104 16.0185 24.6005 16.7975 25.3937C16.9015 25.4993 17.0386 25.5521 17.176 25.5521C17.3103 25.5521 17.4446 25.5015 17.5478 25.3999C17.7569 25.1948 17.76 24.8589 17.5544 24.6498C17.1783 24.2675 17.1783 23.6446 17.5542 23.2623L18.9519 21.8417C19.7309 21.0485 19.7309 19.7584 18.9516 18.9661L15.4589 15.4142C14.6972 14.639 13.3683 14.639 12.6068 15.4142C9.13107 18.9491 9.13107 24.7006 12.6068 28.2349L20.2907 36.0499C21.9773 37.7648 24.2203 38.7099 26.6068 38.7099C28.9926 38.7099 31.236 37.7648 32.9229 36.0499C33.3002 35.6659 33.508 35.155 33.508 34.6122C33.508 34.0691 33.3002 33.5585 32.9229 33.1745L29.43 29.6226L29.4294 29.6226Z" fill="white"/>
<path d="M28.6106 9.00022C24.5357 9.00022 21.2207 12.3675 21.2207 16.5065C21.2207 18.4633 21.9521 20.2992 23.2853 21.7051L22.9376 25.5555C22.9189 25.7622 23.0226 25.9607 23.2026 26.0637C23.2846 26.1104 23.3755 26.1336 23.466 26.1336C23.5745 26.1336 23.6827 26.1004 23.7751 26.0341L26.221 24.2815C26.4593 24.111 26.5142 23.7794 26.3432 23.5416C26.1727 23.3033 25.8411 23.2479 25.6033 23.4194L24.0982 24.4975L24.3639 21.5563C24.3779 21.3983 24.3208 21.2423 24.2081 21.1309C22.9656 19.9045 22.2816 18.2623 22.2816 16.5063C22.2816 12.9527 25.1204 10.0611 28.6104 10.0611C32.0999 10.0611 34.9393 12.9525 34.9393 16.5063C34.9393 20.0604 32.1002 22.9522 28.6104 22.9522C28.3172 22.9522 28.0799 23.1895 28.0799 23.4827C28.0799 23.7759 28.3172 24.0132 28.6104 24.0132C32.6854 24.0132 36.0003 20.6455 36.0003 16.5063C36.0003 12.3671 32.6854 9 28.6104 9L28.6106 9.00022Z" fill="white"/>
</svg>
