<svg width="48" height="47" viewBox="0 0 48 47" fill="none" xmlns="http://www.w3.org/2000/svg">
<rect width="47.0147" height="46.9831" rx="5" fill="#FF5C00"/>
<path d="M33.9514 13.378C34.2479 13.3852 34.522 13.5368 34.6857 13.7841C34.8373 14.0253 34.8598 14.3261 34.7462 14.5873L25.5641 36.1848C25.4524 36.5226 25.1453 36.7575 24.7901 36.7766C24.435 36.7956 24.1044 36.5949 23.9575 36.2712L20.0101 29.3602V29.36C19.718 28.8303 19.292 28.3864 18.7749 28.0728L11.8649 24.1335H11.8646C11.5791 23.9736 11.4085 23.6658 11.4241 23.3387C11.4426 23.0058 11.6511 22.7134 11.9597 22.5873L33.5971 13.4557C33.7082 13.4051 33.8291 13.3785 33.9511 13.3779L33.9514 13.378ZM33.9511 12.0821C33.6535 12.0795 33.3588 12.1414 33.0875 12.2635L11.3983 21.395C10.8991 21.6038 10.4965 21.9926 10.2704 22.484C10.044 22.9754 10.0104 23.5337 10.1759 24.0489C10.3416 24.564 10.6947 24.9981 11.1649 25.2655L18.075 29.196C18.4122 29.3907 18.6924 29.6707 18.8871 30.008L22.8345 36.919V36.9193C23.1052 37.3884 23.5413 37.7398 24.0576 37.9048C24.5735 38.0696 25.1326 38.0361 25.6251 37.8105C26.1179 37.5851 26.5086 37.1842 26.7215 36.6858L35.9036 15.0884V15.0887C36.1809 14.4269 36.1133 13.6708 35.7226 13.0692C35.3318 12.4673 34.6687 12.0979 33.9514 12.0823L33.9511 12.0821Z" fill="white"/>
<path d="M21.6943 27.0798C21.5219 27.0815 21.3565 27.0127 21.2365 26.8895C20.9837 26.6367 20.9837 26.2268 21.2365 25.974L28.3539 18.89C28.6067 18.6372 29.0165 18.6372 29.2695 18.89C29.393 19.0104 29.4624 19.1755 29.4624 19.3479C29.4624 19.5203 29.393 19.6855 29.2695 19.8058L22.1521 26.8898V26.8895C22.0312 27.0118 21.866 27.0804 21.6943 27.0798L21.6943 27.0798Z" fill="white"/>
</svg>
