<svg width="25" height="25" viewBox="0 0 25 25" fill="none" xmlns="http://www.w3.org/2000/svg">
<path fill-rule="evenodd" clip-rule="evenodd" d="M12.9752 0.966383C6.3287 0.966383 0.950195 6.33805 0.950195 12.9833C0.950195 15.4894 1.71496 17.8073 3.07341 19.7991C3.17574 19.9509 3.20343 20.1409 3.14848 20.3155L1.92719 24.3994L5.92932 23.0192V23.0194C6.10253 22.9616 6.29272 22.9859 6.44602 23.085C8.32052 24.3004 10.5647 25.0001 12.9749 25.0001C19.6247 25.0001 24.9999 19.6285 24.9999 12.9832C24.9999 6.33798 19.6247 0.966309 12.9749 0.966309L12.9752 0.966383ZM8.05251 6.2049L10.2413 9.81936L9.32995 10.7207L9.33016 10.7209C9.13934 10.9131 9.10096 11.2092 9.23622 11.4437C10.6269 13.8502 12.2746 15.7225 14.5817 16.7386C14.8079 16.8392 15.0726 16.7908 15.2487 16.6166L16.2162 15.6497L19.7486 17.856C19.3576 18.7357 18.8476 19.2594 18.2644 19.5645C17.5888 19.918 16.7636 19.9849 15.8218 19.7898C13.9383 19.3996 11.6633 17.9203 9.80934 16.0251C7.9554 14.13 6.52061 11.8255 6.15492 9.95062C5.97207 9.01325 6.0528 8.20602 6.39922 7.56607C6.69741 7.01495 7.20404 6.54324 8.05271 6.20478L8.05251 6.2049Z" fill="#00AF27"/>
</svg>
