<svg width="20" height="20" viewBox="0 0 20 20" fill="none" xmlns="http://www.w3.org/2000/svg">
<path fill-rule="evenodd" clip-rule="evenodd" d="M9.82536 0.904844C4.57285 0.904844 0.322388 5.1499 0.322388 10.4014C0.322388 12.3819 0.926759 14.2137 2.0003 15.7878C2.08117 15.9077 2.10304 16.0579 2.05962 16.1958L1.09448 19.4232L4.25723 18.3325V18.3326C4.39411 18.2869 4.54442 18.3061 4.66556 18.3845C6.14692 19.345 7.92045 19.8979 9.82516 19.8979C15.0802 19.8979 19.3281 15.6529 19.3281 10.4014C19.3281 5.14984 15.0802 0.904785 9.82516 0.904785L9.82536 0.904844ZM5.93512 5.04467L7.66487 7.90107L6.94464 8.61336L6.94481 8.61352C6.794 8.76538 6.76368 8.99939 6.87057 9.18471C7.9696 11.0865 9.27168 12.5661 11.0949 13.3691C11.2737 13.4486 11.4828 13.4103 11.6221 13.2727L12.3867 12.5086L15.1782 14.2521C14.8691 14.9473 14.4661 15.3612 14.0053 15.6024C13.4713 15.8817 12.8192 15.9346 12.075 15.7804C10.5865 15.472 8.7886 14.303 7.32348 12.8052C5.85837 11.3077 4.72451 9.48648 4.43552 8.0048C4.29101 7.26402 4.35481 6.6261 4.62858 6.12036C4.86423 5.68483 5.2646 5.31205 5.93528 5.04458L5.93512 5.04467Z" fill="#00AF27"/>
</svg>
