<svg width="223" height="80" viewBox="0 0 223 80" fill="none" xmlns="http://www.w3.org/2000/svg">
<path d="M83.4815 52.1846C83.4815 54.8817 82.1344 56.2302 79.4989 56.2302C76.8633 56.2302 75.5163 54.8817 75.5163 52.1846V40.3996C75.5163 37.7025 76.8633 36.354 79.4989 36.354C82.1344 36.354 83.4815 37.7025 83.4815 40.3996V45.0902H80.7288V40.3996C80.7288 39.5201 80.3188 39.1097 79.4989 39.1097C78.6789 39.1097 78.3275 39.5201 78.3275 40.3996V52.1846C78.3275 53.0641 78.7375 53.4745 79.5575 53.4745C80.3774 53.4745 80.7874 53.0641 80.7874 52.1846V49.0185H83.5401V52.1846H83.4815Z" fill="#FFD989"/>
<path d="M85.7071 55.8782V36.647H88.4598V53.1225H92.8523V55.8782H85.7071Z" fill="#FFD989"/>
<path d="M102.34 52.1846C102.34 54.8817 100.993 56.2302 98.3577 56.2302C95.7221 56.2302 94.3751 54.8817 94.3751 52.1846V40.3996C94.3751 37.7025 95.7221 36.354 98.3577 36.354C100.993 36.354 102.34 37.7025 102.34 40.3996V52.1846ZM99.529 40.3996C99.529 39.5201 99.119 39.1097 98.2991 39.1097C97.4791 39.1097 97.1277 39.5201 97.1277 40.3996V52.1846C97.1277 53.0641 97.5377 53.4745 98.3577 53.4745C99.1776 53.4745 99.5876 53.0641 99.5876 52.1846V40.3996H99.529Z" fill="#FFD989"/>
<path d="M112.531 52.1844C112.531 54.8815 111.184 56.23 108.548 56.23C105.913 56.23 104.566 54.8815 104.566 52.1844V36.647H107.318V52.1258C107.318 53.0053 107.728 53.4157 108.548 53.4157C109.368 53.4157 109.778 53.0053 109.778 52.1258V36.647H112.531V52.1844V52.1844Z" fill="#FFD989"/>
<path d="M114.991 36.647H119.266C121.726 36.647 122.956 37.9955 122.956 40.6926V51.8326C122.956 54.5297 121.668 55.8782 119.091 55.8782H114.991V36.647V36.647ZM117.744 39.4027V53.1812H118.973C119.793 53.1812 120.203 52.7708 120.203 51.8913V40.7512C120.203 39.8717 119.793 39.4613 118.973 39.4613H117.744V39.4027Z" fill="#FFD989"/>
<path d="M125.123 40.3996C125.123 37.7025 126.47 36.354 129.106 36.354C131.741 36.354 133.088 37.7025 133.088 40.3996V45.0902H130.336V40.3996C130.336 39.5201 129.926 39.1097 129.106 39.1097C128.286 39.1097 127.934 39.5201 127.934 40.3996V43.6244C127.934 45.1488 128.813 46.4387 130.511 47.4354C132.268 48.6667 133.088 50.2498 133.088 52.126C133.088 54.8231 131.741 56.1716 129.106 56.1716C126.47 56.1716 125.123 54.8231 125.123 52.126V50.7775H127.876V52.126C127.876 53.0055 128.286 53.4159 129.106 53.4159C129.926 53.4159 130.336 53.0055 130.336 52.126C130.336 51.1879 129.457 50.1325 127.759 48.8426C126.002 47.6113 125.182 45.8524 125.182 43.6244V40.3996H125.123Z" fill="#FFD989"/>
<path d="M148.14 52.1846C148.14 54.8817 146.793 56.2302 144.158 56.2302C141.522 56.2302 140.175 54.8817 140.175 52.1846V40.3996C140.175 37.7025 141.522 36.354 144.158 36.354C146.793 36.354 148.14 37.7025 148.14 40.3996V45.0902H145.387V40.3996C145.387 39.5201 144.977 39.1097 144.158 39.1097C143.338 39.1097 142.986 39.5201 142.986 40.3996V52.1846C142.986 53.0641 143.396 53.4745 144.216 53.4745C145.036 53.4745 145.446 53.0641 145.446 52.1846V50.7775H144.158V48.0218H148.14V52.1846Z" fill="#8A60FF"/>
<path d="M158.272 52.1846C158.272 54.8817 156.925 56.2302 154.29 56.2302C151.654 56.2302 150.307 54.8817 150.307 52.1846V40.3996C150.307 37.7025 151.654 36.354 154.29 36.354C156.925 36.354 158.272 37.7025 158.272 40.3996V52.1846ZM155.52 40.3996C155.52 39.5201 155.11 39.1097 154.29 39.1097C153.47 39.1097 153.118 39.5201 153.118 40.3996V52.1846C153.118 53.0641 153.528 53.4745 154.348 53.4745C155.168 53.4745 155.578 53.0641 155.578 52.1846V40.3996H155.52Z" fill="#8A60FF"/>
<path d="M168.405 52.1846C168.405 54.8817 167.057 56.2302 164.422 56.2302C161.786 56.2302 160.439 54.8817 160.439 52.1846V40.3996C160.439 37.7025 161.786 36.354 164.422 36.354C167.057 36.354 168.405 37.7025 168.405 40.3996V52.1846ZM165.593 40.3996C165.593 39.5201 165.183 39.1097 164.363 39.1097C163.543 39.1097 163.192 39.5201 163.192 40.3996V52.1846C163.192 53.0641 163.602 53.4745 164.422 53.4745C165.242 53.4745 165.652 53.0641 165.652 52.1846V40.3996H165.593Z" fill="#8A60FF"/>
<path d="M170.747 36.647H175.023C177.482 36.647 178.712 37.9955 178.712 40.6926V51.8326C178.712 54.5297 177.424 55.8782 174.847 55.8782H170.747V36.647ZM173.5 39.4027V53.1812H174.73C175.55 53.1812 175.96 52.7708 175.96 51.8913V40.7512C175.96 39.8717 175.55 39.4613 174.73 39.4613H173.5V39.4027Z" fill="#8A60FF"/>
<path d="M180.821 40.3996C180.821 37.7025 182.168 36.354 184.803 36.354C187.439 36.354 188.786 37.7025 188.786 40.3996V45.0902H186.033V40.3996C186.033 39.5201 185.623 39.1097 184.803 39.1097C183.984 39.1097 183.632 39.5201 183.632 40.3996V43.6244C183.632 45.1488 184.511 46.4387 186.209 47.4354C187.966 48.6667 188.786 50.2498 188.786 52.126C188.786 54.8231 187.439 56.1716 184.803 56.1716C182.168 56.1716 180.821 54.8231 180.821 52.126V50.7775H183.574V52.126C183.574 53.0055 183.984 53.4159 184.803 53.4159C185.623 53.4159 186.033 53.0055 186.033 52.126C186.033 51.1879 185.155 50.1325 183.456 48.8426C181.699 47.6113 180.879 45.8524 180.879 43.6244V40.3996H180.821Z" fill="#8A60FF"/>
<path d="M66.614 58.9275L58.4146 43.8591L58.2389 50.3673C41.5471 41.9829 40.0829 34.7125 40.6686 30.3151C40.9614 27.9699 44.0655 28.0871 46.8182 30.2565C43.6555 27.9112 41.8985 26.0936 38.7944 26.7972C34.2847 28.3217 34.4604 36.237 35.9246 39.3445C39.6144 47.4943 53.6706 58.7516 66.5555 58.9861C66.5555 58.9275 66.4969 58.8689 66.4383 58.8689L66.614 58.9275Z" fill="#8A60FF"/>
<path d="M70.948 28.2044C70.948 20.1718 61.9286 17.7093 57.4775 22.2825C53.612 26.2109 51.445 35.5334 50.9179 37.8786H48.1652L54.1391 44.504L55.2519 37.8786C55.2519 37.8786 59.2931 23.162 65.6184 25.1555C71.9437 27.149 67.0826 47.7874 67.0826 47.7874C67.0826 47.7874 70.948 36.2369 70.948 28.2044Z" fill="#FFD989"/>
</svg>
